<?xml version="1.0" encoding="UTF-8"?>
<svg id="Layer_2" data-name="Layer 2" xmlns="http://www.w3.org/2000/svg" viewBox="0 0 363.75 241.76">
  <defs>
    <style>
      .cls-1 {
        fill: #fefced;
      }
    </style>
  </defs>
  <g id="Layer_1-2" data-name="Layer 1">
    <path class="cls-1" d="m28.88,241.76c-8.1,0-16.22-4.39-21.76-11.93-12.49-17-7.05-40.58,4.79-55.09,11.64-14.27,28.2-22.18,42.82-29.15,9.07-4.33,18.53-8.85,28.3-13.32.9-10.3,1.18-20.87,1.47-31.72.08-3.02.16-6.08.26-9.16-10.5.84-21.93.3-34.43-1.58-4.55-.68-7.68-4.93-7-9.48.68-4.55,4.94-7.68,9.48-7,12.1,1.82,22.95,2.24,32.72,1.25,1.23-18.63,4.64-41.79,18.74-59.4,5.55-6.93,11.78-11.57,18.52-13.78,9.25-3.04,19.37-1.06,25.77,5.05,5.64,5.37,8.42,13.79,7.84,23.68-1.31,22.41-17.29,43.52-40.71,53.78-4.5,1.97-9.22,3.57-14.16,4.8-.15,4.12-.26,8.24-.37,12.29-.21,7.81-.42,15.7-.89,23.6,15.48-6.65,31.55-12.86,47.89-17.78,4.41-1.33,9.05,1.17,10.38,5.58,1.33,4.41-1.17,9.05-5.58,10.38-18.52,5.57-36.87,12.96-54.42,20.77-1.35,10.36-3.48,20.65-6.95,30.7-8.37,24.2-24.42,45.75-45.21,60.7-4.12,2.96-8.72,5.81-14.46,6.6-1.01.14-2.02.21-3.04.21Zm51.47-89.88c-6.3,2.95-12.46,5.89-18.44,8.75-13.03,6.22-27.8,13.27-37.08,24.65-7.59,9.3-11.67,24.62-4.27,34.69,2.49,3.39,6.21,5.48,9.08,5.08,2.16-.3,4.65-1.92,7.03-3.63,18.02-12.95,31.94-31.64,39.19-52.61,1.92-5.55,3.38-11.19,4.5-16.92ZM131.58,16.66c-1.18,0-2.41.19-3.6.58-3.61,1.19-7.21,4-10.71,8.36-10.19,12.73-13.46,30.28-14.77,45.51,2.23-.72,4.39-1.54,6.49-2.46,17.46-7.65,29.82-23.52,30.76-39.49.29-4.86-.7-8.74-2.7-10.65-1.27-1.21-3.29-1.86-5.47-1.86Z"/>
    <g>
      <path class="cls-1" d="m171.57,97.56c0-4.76.01-9.52.18-14.28,1.76-.18,3.57-.54,5.33-1.21,6.05-2.29,10.63-7.89,11.67-14.28.75-4.6-.4-8.99-3.15-12.04-3.55-3.94-9.41-4.92-13.63-2.28-2.24,1.4-3.57,3.51-4.37,4.97-1.97,3.58-3.11,7.55-3.37,11.61-.16,1.33-.3,2.86-.43,4.49-2.33-.3-5.04-.81-7.45-1.93-2.13-.99-4.66-.06-5.64,2.07-.99,2.13-.06,4.66,2.07,5.64,3.66,1.69,7.48,2.36,10.57,2.72-.23,6.16-.28,12.09-.28,14.5,0,3.23.68,20.32,1.79,22.19.85,1.36,2.12,2.29,3.74,2.29,2.3,0,4.25-1.96,4.25-4.25s-.43-4.59-.6-6.8c-.42-4.51-.68-8.93-.68-13.43Zm4.91-36.88c.19-.12.45-.18.72-.18.7,0,1.55.36,2.07.94.99,1.1,1.4,3.01,1.08,5-.55,3.39-3.07,6.48-6.28,7.69-.57.22-1.18.37-1.79.5.12-1.31.27-2.63.48-3.92.17-1.19.51-2.3.51-3.49,0,0,0,0,0,0,.39-1.62.97-3.19,1.77-4.66.54-.98,1.02-1.61,1.43-1.86Z"/>
      <path class="cls-1" d="m206.08,105.89c-.77-3.57.68-13.18-3.06-15.81.08-.25.08-.59.08-.85,0-4.42-7.48-7.31-11.14-7.31-12.41,0-17,16.75-17,26.69,0,4.76.85,9.61,4.85,12.67,1.28.94,2.72,1.53,4.34,1.53,4.51,0,6.89-3.74,9.1-7.06,1.62-2.46,3.15-5.01,4.59-7.57.51,2.04,1.1,4.08,1.79,6.12.94,2.63,1.79,5.87,5.19,5.87,2.29,0,4.25-1.96,4.25-4.25,0-1.61-1.02-3.23-1.53-4.76-.6-1.7-1.1-3.49-1.45-5.27Zm-12.24-8.33c-2.38,4.59-4.85,9.1-7.65,13.43-.59.93-1.19,1.87-1.87,2.72-.77-1.27-.85-3.66-.85-5.1,0-5.01,2.64-18.19,8.33-18.19,2.13,0,3.23,1.28,4.59,2.21-.94,1.7-2.04,4-2.55,4.93Z"/>
      <path class="cls-1" d="m258.78,84.04c-1.45,0-2.72.76-3.57,1.96-.77,1.11-2.12,6.55-2.64,8.25-1.7,5.87-3.4,11.73-5.95,17.34-.6,1.36-1.11,2.72-1.87,4-.68-1.27-1.1-2.63-1.61-4-.68-1.62-1.45-3.15-1.87-4.85-.94-3.74-1.62-11.73-4-14.45-.85-.93-1.96-1.53-3.23-1.53-1.36,0-2.55.68-3.4,1.7-.94,1.1-4,10.2-4.85,12.33-1.11,2.89-2.3,5.7-3.57,8.5-.26-1.53-.68-3.06-1.02-4.59-.94-4.17-1.53-8.42-1.78-12.67-.17-2.46.34-5.7-2.04-7.31-.68-.42-1.53-.76-2.38-.76-2.3,0-4.25,1.96-4.25,4.25,0,5.36.68,10.8,1.7,16.07.34,1.79.85,3.57,1.19,5.36.51,2.55.68,5.19,2.12,7.48,1.19,1.87,3.4,3.23,5.7,3.23,5.1,0,7.14-4.59,8.93-8.59.94-2.21,1.96-4.33,2.81-6.54.51,1.96,1.36,3.74,2.12,5.61,1.87,4.76,3.57,9.69,9.61,9.69,5.27,0,7.4-4.76,9.18-8.84.85-1.96,1.7-3.83,2.46-5.78,1.87-5.1,3.32-10.37,4.85-15.56.51-1.62,1.62-4.51,1.62-6.04,0-2.29-1.96-4.25-4.25-4.25Z"/>
      <path class="cls-1" d="m273.23,97.56c0-4.76.01-9.52.18-14.27,1.78-.18,3.59-.54,5.36-1.21,6.05-2.29,10.63-7.89,11.67-14.28.75-4.6-.4-8.99-3.15-12.04-3.55-3.94-9.41-4.92-13.63-2.28-2.24,1.4-3.57,3.51-4.37,4.97-1.86,3.38-2.98,7.11-3.32,10.94-.2,1.49-.37,3.24-.51,5.16-2.32-.3-5.02-.81-7.41-1.92-2.13-.99-4.66-.06-5.64,2.07-.99,2.13-.06,4.66,2.07,5.64,3.65,1.69,7.45,2.35,10.53,2.71-.23,6.16-.28,12.09-.28,14.5,0,3.23.68,20.32,1.79,22.19.85,1.36,2.12,2.29,3.74,2.29,2.3,0,4.25-1.96,4.25-4.25s-.43-4.59-.6-6.8c-.42-4.51-.68-8.93-.68-13.43Zm4.94-36.88c.19-.12.45-.18.72-.18.7,0,1.55.36,2.07.94.99,1.1,1.4,3.01,1.08,5-.55,3.39-3.07,6.48-6.28,7.69-.59.22-1.2.38-1.83.5.12-1.32.27-2.64.48-3.93.17-1.17.5-2.27.51-3.44.4-1.64.99-3.23,1.81-4.72.54-.98,1.02-1.6,1.43-1.86Z"/>
      <path class="cls-1" d="m303.06,110.91c-1.19,0-2.21.59-3.32,1.02-1.53.6-3.15.85-4.76.85-6.04,0-9.86-1.96-9.86-8.5,1.79.34,3.66.34,5.02.34,7.06,0,15.05-2.21,15.05-10.71,0-6.12-4.59-12.16-10.97-12.16-2.12,0-4.59.51-6.55,1.27-9.01,3.57-11.05,13.09-11.05,21.76,0,10.97,8.08,16.49,18.36,16.49,3.66,0,12.33-1.02,12.33-6.12,0-2.29-1.96-4.25-4.25-4.25Zm-11.39-20.23c.76-.26,1.61-.43,2.38-.43,1.7,0,2.64,2.21,2.64,3.66,0,.34,0,.77-.34,1.02-.85.76-5.02,1.19-6.21,1.19-1.28,0-2.55-.09-3.74-.34,1.02-2.97,2.29-4.25,5.27-5.1Z"/>
      <path class="cls-1" d="m329.24,103.17c-2.55-2.04-10.46-5.7-10.46-9.1,0-.59.25-.93.68-1.36,1.53-1.62,3.32-1.7,5.36-1.7,2.3,0,4.17,1.27,6.21,1.27,2.3,0,4.25-1.96,4.25-4.25,0-4.59-6.97-5.53-10.46-5.53-2.21,0-4.51.25-6.63,1.02-4.42,1.61-7.91,5.87-7.91,10.62,0,5.19,4,9.44,8.08,12.07,2.81,1.79,5.78,3.06,7.82,5.95.34.51.77,1.19.85,1.79-.85,1.62-3.49,2.21-5.19,2.21s-3.74-.51-5.27-1.11c-1.1-.42-2.04-1.11-3.31-1.11-2.3,0-4.25,1.96-4.25,4.25,0,1.19.51,2.29,1.36,3.14,2.04,1.87,8.59,3.32,11.39,3.32,6.21,0,13.77-3.66,13.77-10.8,0-4.25-3.15-8.16-6.29-10.71Z"/>
      <path class="cls-1" d="m357.46,103.17c-2.55-2.04-10.46-5.7-10.46-9.1,0-.59.25-.93.68-1.36,1.53-1.62,3.32-1.7,5.36-1.7,2.3,0,4.17,1.27,6.21,1.27,2.3,0,4.25-1.96,4.25-4.25,0-4.59-6.97-5.53-10.46-5.53-2.21,0-4.51.25-6.63,1.02-4.42,1.61-7.91,5.87-7.91,10.62,0,5.19,4,9.44,8.08,12.07,2.81,1.79,5.78,3.06,7.82,5.95.34.51.77,1.19.85,1.79-.85,1.62-3.49,2.21-5.19,2.21s-3.74-.51-5.27-1.11c-1.1-.42-2.04-1.11-3.31-1.11-2.3,0-4.25,1.96-4.25,4.25,0,1.19.51,2.29,1.36,3.14,2.04,1.87,8.59,3.32,11.39,3.32,6.21,0,13.77-3.66,13.77-10.8,0-4.25-3.15-8.16-6.29-10.71Z"/>
    </g>
  </g>
</svg>